# Blender v2.93.5 OBJ File: ''
# www.blender.org
mtllib TranslucentCrystal01.mtl
o TranslucentCrystal01_Plane
v -0.007752 1.082269 0.159425
v 0.281118 0.267672 0.417147
v -0.024714 -0.042156 0.502294
v 0.413162 0.143529 0.191208
v -0.369898 0.017075 0.258522
v 0.104738 -0.824450 0.267715
v 0.048775 -0.948640 0.074628
v -0.041938 1.033270 -0.043798
v -0.100479 -0.195390 -0.259485
v -0.184563 0.127243 -0.216534
v 0.305491 0.169194 -0.230555
vt 0.040139 0.637643
vt 0.134153 0.582551
vt 0.208041 0.927790
vt 0.842388 0.404008
vt 0.723363 0.381412
vt 0.887810 0.106447
vt 0.840216 0.038650
vt 0.931046 0.547307
vt 0.209818 0.172511
vt 0.625620 0.788488
vt 0.590235 0.758757
vt 0.576254 0.241895
vt 0.525825 0.441541
vt 0.300847 0.187736
vt 0.415919 0.473309
vt 0.272381 0.596853
vt 0.269188 0.932220
vt 0.452622 0.648626
vn 0.8699 0.3998 0.2887
vn -0.5825 -0.3204 0.7470
vn -0.7603 -0.4234 0.4927
vn 0.4380 -0.1909 0.8785
vn 0.7911 -0.2065 0.5758
vn -0.9415 0.3275 0.0794
vn -0.9009 -0.1824 -0.3938
vn -0.9269 0.2058 -0.3139
vn 0.3508 -0.3208 -0.8798
vn 0.8924 0.4028 -0.2033
vn -0.0446 0.1939 -0.9800
vn -0.0388 0.1219 -0.9918
vn -0.0296 0.2920 0.9560
vn -0.5282 0.2549 0.8099
vn 0.9482 -0.3082 -0.0766
vn -0.8875 -0.3220 -0.3295
vn 0.9254 -0.2817 -0.2534
vn 0.8881 0.3900 -0.2434
usemtl TranslucentCrystal01
s off
f 2/1/1 4/2/1 1/3/1
f 3/4/2 5/5/2 6/6/2
f 6/6/3 5/5/3 7/7/3
f 3/4/4 6/6/4 2/8/4
f 4/2/5 2/1/5 6/9/5
f 1/10/6 8/11/6 5/5/6
f 9/12/7 5/5/7 10/13/7
f 5/5/8 8/11/8 10/13/8
f 7/14/9 9/15/9 11/16/9
f 11/16/10 8/17/10 4/2/10
f 11/16/11 10/18/11 8/17/11
f 10/18/12 11/16/12 9/15/12
f 2/8/13 1/10/13 3/4/13
f 3/4/14 1/10/14 5/5/14
f 7/14/15 4/2/15 6/9/15
f 5/5/16 9/12/16 7/7/16
f 7/14/17 11/16/17 4/2/17
f 1/3/18 4/2/18 8/17/18
