# Blender v2.91.2 OBJ File: ''
# www.blender.org
mtllib screenhole.mtl
v -58.000000 -2.000000 33.000000
v -58.000000 2.000000 33.000000
v -58.000000 -2.000000 -33.000000
v -58.000000 2.000000 -33.000000
v 58.000000 -2.000000 33.000000
v 58.000000 2.000000 33.000000
v 58.000000 -2.000000 -33.000000
v 58.000000 2.000000 -33.000000
v -29.564131 2.000000 -12.245903
v -29.564131 -2.000000 -12.245902
v -26.607006 2.000000 -17.778280
v -26.607006 -2.000000 -17.778280
v 12.245871 2.000000 -29.564144
v 12.245871 -2.000000 -29.564144
v 6.242890 2.000000 -31.385128
v 6.242890 -2.000000 -31.385128
v -31.385122 2.000000 -6.242923
v -31.385122 -2.000000 -6.242923
v 22.627417 2.000000 -22.627415
v 22.627417 -2.000000 -22.627415
v 17.778246 2.000000 26.607029
v 17.778244 -2.000000 26.607029
v 12.245865 2.000000 29.564146
v 12.245865 -2.000000 29.564148
v 26.607029 2.000000 -17.778246
v 26.607027 -2.000000 -17.778246
v 6.242883 2.000000 31.385128
v 6.242882 -2.000000 31.385130
v -12.245884 2.000000 29.564138
v -12.245884 -2.000000 29.564138
v -32.000000 2.000000 -0.000031
v -32.000000 -2.000000 -0.000031
v -12.245827 2.000000 -29.564161
v -12.245827 -2.000000 -29.564161
v -17.778263 2.000000 26.607016
v -17.778263 -2.000000 26.607016
v 31.385128 2.000000 6.242887
v 31.385128 -2.000000 6.242887
v 22.627417 2.000000 22.627415
v 22.627417 -2.000000 22.627415
v 29.564146 2.000000 12.245865
v 29.564146 -2.000000 12.245865
v 32.000000 2.000000 -0.000002
v 32.000000 -2.000000 -0.000002
v -22.627388 2.000000 -22.627445
v -22.627386 -2.000000 -22.627445
v -17.778212 2.000000 -26.607052
v -17.778212 -2.000000 -26.607052
v -0.000010 2.000000 31.999996
v -0.000010 -2.000000 31.999998
v 0.000000 2.000000 -31.999996
v 0.000000 -2.000000 -31.999998
v 31.385128 2.000000 -6.242891
v 31.385128 -2.000000 -6.242891
v 17.778248 2.000000 -26.607027
v 17.778246 -2.000000 -26.607027
v 29.564146 2.000000 -12.245870
v 29.564146 -2.000000 -12.245870
v -29.564156 2.000000 12.245845
v -29.564156 -2.000000 12.245844
v -26.607040 2.000000 17.778229
v -26.607040 -2.000000 17.778229
v -31.385132 2.000000 6.242862
v -31.385132 -2.000000 6.242862
v -22.627432 2.000000 22.627401
v -22.627432 -2.000000 22.627401
v -6.242903 2.000000 31.385126
v -6.242903 -2.000000 31.385126
v 26.607029 2.000000 17.778246
v 26.607027 -2.000000 17.778246
v -6.242842 2.000000 -31.385138
v -6.242842 -2.000000 -31.385138
vt 0.375000 0.000000
vt 0.625000 0.000000
vt 0.625000 0.250000
vt 0.375000 0.250000
vt 0.625000 0.500000
vt 0.375000 0.500000
vt 0.625000 0.750000
vt 0.375000 0.750000
vt 0.625000 1.000000
vt 0.375000 1.000000
vt 0.125000 0.500000
vt 0.318966 0.625000
vt 0.317640 0.601353
vt 0.313716 0.578614
vt 0.307343 0.557658
vt 0.298766 0.539290
vt 0.288315 0.524216
vt 0.276392 0.513015
vt 0.263455 0.506117
vt 0.250000 0.503788
vt 0.236546 0.506117
vt 0.223608 0.513015
vt 0.211685 0.524216
vt 0.201234 0.539290
vt 0.192657 0.557658
vt 0.186284 0.578614
vt 0.182360 0.601353
vt 0.181034 0.625000
vt 0.681035 0.625000
vt 0.682360 0.648647
vt 0.686284 0.671386
vt 0.692657 0.692342
vt 0.701234 0.710710
vt 0.711685 0.725784
vt 0.723608 0.736985
vt 0.736546 0.743883
vt 0.750000 0.746212
vt 0.763455 0.743883
vt 0.776392 0.736985
vt 0.788315 0.725784
vt 0.798766 0.710710
vt 0.807343 0.692342
vt 0.813716 0.671386
vt 0.817640 0.648647
vt 0.818965 0.625000
vt 0.875000 0.500000
vt 0.875000 0.750000
vt 0.718750 0.583333
vt 0.718750 0.916667
vt 0.750000 0.916667
vt 0.750000 0.583333
vt 0.625000 0.583333
vt 0.625000 0.916667
vt 0.656250 0.916667
vt 0.656250 0.583333
vt 0.687500 0.916667
vt 0.687500 0.583333
vt 0.218750 0.583333
vt 0.218750 0.916667
vt 0.250000 0.916667
vt 0.250000 0.583333
vt 0.781250 0.583333
vt 0.781250 0.916667
vt 0.812500 0.916667
vt 0.812500 0.583333
vt 0.843750 0.583333
vt 0.843750 0.916667
vt 0.875000 0.916667
vt 0.875000 0.583333
vt 0.000000 0.583333
vt 0.000000 0.916667
vt 0.031250 0.916667
vt 0.031250 0.583333
vt 0.468750 0.583333
vt 0.468750 0.916667
vt 0.500000 0.916667
vt 0.500000 0.583333
vt 0.156250 0.583333
vt 0.156250 0.916667
vt 0.187500 0.916667
vt 0.187500 0.583333
vt 0.531250 0.916667
vt 0.531250 0.583333
vt 0.062500 0.916667
vt 0.062500 0.583333
vt 0.906250 0.916667
vt 0.906250 0.583333
vt 0.406250 0.583333
vt 0.406250 0.916667
vt 0.437500 0.916667
vt 0.437500 0.583333
vt 0.937500 0.916667
vt 0.937500 0.583333
vt 0.593750 0.583333
vt 0.593750 0.916667
vt 0.093750 0.583333
vt 0.093750 0.916667
vt 0.125000 0.916667
vt 0.125000 0.583333
vt 0.182360 0.648647
vt 0.186284 0.671386
vt 0.192657 0.692342
vt 0.201234 0.710710
vt 0.211685 0.725784
vt 0.223608 0.736985
vt 0.236545 0.743883
vt 0.250000 0.746212
vt 0.263454 0.743883
vt 0.276392 0.736985
vt 0.288315 0.725784
vt 0.298766 0.710710
vt 0.307343 0.692342
vt 0.313716 0.671386
vt 0.317640 0.648647
vt 0.125000 0.750000
vt 0.562500 0.583333
vt 0.562500 0.916667
vt 0.375000 0.583333
vt 0.375000 0.916667
vt 0.312500 0.583333
vt 0.312500 0.916667
vt 0.343750 0.916667
vt 0.343750 0.583333
vt 0.968750 0.583333
vt 0.968750 0.916667
vt 1.000000 0.916667
vt 1.000000 0.583333
vt 0.281250 0.916667
vt 0.281250 0.583333
vt 0.817640 0.601353
vt 0.813716 0.578614
vt 0.807343 0.557658
vt 0.798766 0.539290
vt 0.788315 0.524216
vt 0.776392 0.513014
vt 0.763454 0.506117
vt 0.750000 0.503788
vt 0.736545 0.506117
vt 0.723608 0.513015
vt 0.711685 0.524216
vt 0.701234 0.539290
vt 0.692657 0.557658
vt 0.686284 0.578614
vt 0.682360 0.601353
vn -1.0000 0.0000 0.0000
vn 0.0000 0.0000 -1.0000
vn 1.0000 0.0000 0.0000
vn 0.0000 0.0000 1.0000
vn 0.0000 -1.0000 0.0000
vn 0.0000 1.0000 0.0000
vn -0.9952 0.0000 -0.0980
vn -0.7730 0.0000 -0.6344
vn -0.8819 0.0000 -0.4714
vn 0.9952 0.0000 0.0980
vn -0.9569 0.0000 0.2903
vn -0.9952 0.0000 0.0980
vn -0.7730 0.0000 0.6344
vn 0.0980 -0.0000 0.9952
vn 0.0980 -0.0000 -0.9952
vn 0.8819 0.0000 0.4714
vn -0.0980 -0.0000 -0.9952
vn 0.2903 0.0000 0.9569
vn -0.6344 0.0000 0.7730
vn 0.4714 0.0000 -0.8819
vn -0.4714 0.0000 0.8819
vn -0.6344 0.0000 -0.7730
vn 0.6344 0.0000 0.7730
vn 0.9569 0.0000 0.2903
vn -0.4714 0.0000 -0.8819
vn 0.6344 0.0000 -0.7730
vn 0.8819 0.0000 -0.4714
vn -0.0980 -0.0000 0.9952
vn -0.8819 0.0000 0.4714
vn 0.9952 0.0000 -0.0980
vn -0.9569 0.0000 -0.2903
vn 0.2903 0.0000 -0.9569
vn 0.4714 0.0000 0.8819
vn -0.2903 0.0000 0.9569
vn -0.2903 -0.0000 -0.9569
vn 0.9569 0.0000 -0.2903
vn 0.7730 0.0000 0.6344
vn 0.7730 0.0000 -0.6344
usemtl None
s off
f 1/1/1 2/2/1 4/3/1 3/4/1
f 3/4/2 4/3/2 8/5/2 7/6/2
f 7/6/3 8/5/3 6/7/3 5/8/3
f 5/8/4 6/7/4 2/9/4 1/10/4
f 3/11/5 7/6/5 44/12/5 54/13/5 58/14/5 26/15/5 20/16/5 56/17/5 14/18/5 16/19/5 52/20/5 72/21/5 34/22/5 48/23/5 46/24/5 12/25/5 10/26/5 18/27/5 32/28/5
f 8/5/6 43/29/6 37/30/6 41/31/6 69/32/6 39/33/6 21/34/6 23/35/6 27/36/6 49/37/6 67/38/6 29/39/6 35/40/6 65/41/6 61/42/6 59/43/6 63/44/6 31/45/6 4/46/6 2/47/6 6/7/6
f 38/48/7 37/49/7 43/50/7 44/51/7
f 40/52/8 39/53/8 69/54/8 70/55/8
f 70/55/9 69/54/9 41/56/9 42/57/9
f 18/58/10 17/59/10 31/60/10 32/61/10
f 54/62/11 53/63/11 57/64/11 58/65/11
f 44/51/12 43/50/12 53/63/12 54/62/12
f 26/66/13 25/67/13 19/68/13 20/69/13
f 52/70/14 51/71/14 71/72/14 72/73/14
f 68/74/15 67/75/15 49/76/15 50/77/15
f 12/78/16 11/79/16 9/80/16 10/81/16
f 50/77/17 49/76/17 27/82/17 28/83/17
f 72/73/18 71/72/18 33/84/18 34/85/18
f 20/69/19 19/68/19 55/86/19 56/87/19
f 36/88/20 35/89/20 29/90/20 30/91/20
f 56/87/21 55/86/21 13/92/21 14/93/21
f 22/94/22 21/95/22 39/53/22 40/52/22
f 48/96/23 47/97/23 45/98/23 46/99/23
f 10/81/24 9/80/24 17/59/24 18/58/24
f 64/100/5 60/101/5 62/102/5 66/103/5 36/104/5 30/105/5 68/106/5 50/107/5 28/108/5 24/109/5 22/110/5 40/111/5 70/112/5 42/113/5 38/114/5 44/12/5 7/6/5 5/8/5 1/115/5 3/11/5 32/28/5
f 24/116/25 23/117/25 21/95/25 22/94/25
f 66/118/26 65/119/26 35/89/26 36/88/26
f 60/120/27 59/121/27 61/122/27 62/123/27
f 16/124/28 15/125/28 51/126/28 52/127/28
f 58/65/29 57/64/29 25/67/29 26/66/29
f 32/61/30 31/60/30 63/128/30 64/129/30
f 42/57/31 41/56/31 37/49/31 38/48/31
f 30/91/32 29/90/32 67/75/32 68/74/32
f 34/85/33 33/84/33 47/97/33 48/96/33
f 14/93/34 13/92/34 15/125/34 16/124/34
f 28/83/35 27/82/35 23/117/35 24/116/35
f 64/129/36 63/128/36 59/121/36 60/120/36
f 46/99/37 45/98/37 11/79/37 12/78/37
f 4/46/6 31/45/6 17/130/6 9/131/6 11/132/6 45/133/6 47/134/6 33/135/6 71/136/6 51/137/6 15/138/6 13/139/6 55/140/6 19/141/6 25/142/6 57/143/6 53/144/6 43/29/6 8/5/6
f 62/123/38 61/122/38 65/119/38 66/118/38
